<svg width="24" height="24" viewBox="0 0 24 24" fill="none" xmlns="http://www.w3.org/2000/svg">
<path d="M13.7669 8.23375L13.7663 8.23315C13.2813 7.74897 12.6835 7.5 12 7.5C11.3165 7.5 10.7189 7.749 10.2344 8.23345C9.74952 8.71838 9.5 9.31621 9.5 10C9.5 10.6837 9.74944 11.2812 10.2344 11.7656C10.7188 12.2506 11.3163 12.5 12 12.5C12.6838 12.5 13.2816 12.2505 13.7666 11.7656C14.251 11.2811 14.5 10.6835 14.5 10C14.5 9.31649 14.251 8.71874 13.7669 8.23375ZM6.75194 4.59258L6.75202 4.59251C8.27109 3.19121 10.0135 2.5 12 2.5C13.9865 2.5 15.7289 3.19121 17.248 4.59251L17.2481 4.59258C18.739 5.96736 19.5 7.81773 19.5 10.2C19.5 11.6731 18.9473 13.2999 17.7811 15.09C16.6153 16.8788 14.836 18.839 12.4252 20.9698C12.3729 21.0124 12.3076 21.0506 12.2244 21.0818C12.1434 21.1122 12.0694 21.125 12 21.125C11.9306 21.125 11.8566 21.1122 11.7756 21.0818C11.6924 21.0506 11.6271 21.0124 11.5748 20.9698C9.16395 18.839 7.38465 16.8788 6.2189 15.09C5.05269 13.2999 4.5 11.6731 4.5 10.2C4.5 7.81773 5.26101 5.96736 6.75194 4.59258Z" fill="#3A643B" stroke="#3A643B"/>
</svg>
