<svg width="23" height="17" viewBox="0 0 23 17" fill="none" xmlns="http://www.w3.org/2000/svg">
<path d="M22.0406 2.92C21.9218 2.44541 21.6799 2.01057 21.3392 1.65941C20.9986 1.30824 20.5713 1.05318 20.1006 0.92C18.3806 0.5 11.5006 0.5 11.5006 0.5C11.5006 0.5 4.62057 0.5 2.90057 0.96C2.42982 1.09318 2.00255 1.34824 1.66192 1.69941C1.32129 2.05057 1.07936 2.48541 0.960572 2.96C0.645786 4.70556 0.491808 6.47631 0.500572 8.25C0.489351 10.037 0.643339 11.8213 0.960572 13.58C1.09153 14.0398 1.33888 14.4581 1.67872 14.7945C2.01855 15.1308 2.43939 15.3738 2.90057 15.5C4.62057 15.96 11.5006 15.96 11.5006 15.96C11.5006 15.96 18.3806 15.96 20.1006 15.5C20.5713 15.3668 20.9986 15.1118 21.3392 14.7606C21.6799 14.4094 21.9218 13.9746 22.0406 13.5C22.3529 11.7676 22.5069 10.0103 22.5006 8.25C22.5118 6.46295 22.3578 4.6787 22.0406 2.92Z" stroke="#3A643B" stroke-linecap="round" stroke-linejoin="round"/>
<path d="M9.25 11.5205L15 8.25047L9.25 4.98047V11.5205Z" stroke="#3A643B" stroke-linecap="round" stroke-linejoin="round"/>
</svg>
