<svg width="20" height="20" viewBox="0 0 20 20" fill="none" xmlns="http://www.w3.org/2000/svg">
<path d="M19.9997 9.98091C19.9891 4.45792 15.5034 -0.0104273 9.98045 0.000231817C4.45746 0.0108909 -0.0108909 4.49652 -0.000231817 10.0195C0.0104273 15.5425 4.49606 20.0109 10.019 20.0002C15.542 19.9895 20.0104 15.5039 19.9997 9.98091ZM18.4997 9.98381C18.5041 12.2381 17.6127 14.4019 16.0217 15.999C14.4308 17.5961 12.2705 18.4958 10.0162 18.5002C7.76182 18.5045 5.59809 17.6132 4.00095 16.0222C2.40382 14.4312 1.50412 12.271 1.49977 10.0166C1.49541 7.76228 2.38677 5.59855 3.97775 4.00142C5.56873 2.40428 7.72901 1.50458 9.98335 1.50023C12.2377 1.49588 14.4014 2.38724 15.9985 3.97822C17.5957 5.5692 18.4954 7.72947 18.4997 9.98381ZM12.0385 14.5263C12.1787 14.3854 12.2572 14.1946 12.2568 13.9959C12.2564 13.7971 12.1772 13.6066 12.0364 13.4663L8.55975 10.003L12.023 6.5263C12.1553 6.38387 12.227 6.19569 12.2232 6.00139C12.2194 5.8071 12.1403 5.62186 12.0027 5.48472C11.865 5.34757 11.6794 5.26922 11.4851 5.26616C11.2908 5.26311 11.1029 5.3356 10.961 5.46835L6.96873 9.47606C6.82855 9.61696 6.75003 9.80773 6.75042 10.0065C6.7508 10.2052 6.83006 10.3957 6.97078 10.5361L10.9785 14.5283C11.1194 14.6685 11.3102 14.747 11.5089 14.7466C11.7077 14.7463 11.8981 14.667 12.0385 14.5263Z" fill="#808080"/>
</svg>
