<svg width="78" height="78" viewBox="0 0 78 78" fill="none" xmlns="http://www.w3.org/2000/svg">
<mask id="mask0_574_1442" style="mask-type:luminance" maskUnits="userSpaceOnUse" x="-3" y="0" width="84" height="78">
<path d="M81 0H-3V78H81V0Z" fill="white"/>
</mask>
<g mask="url(#mask0_574_1442)">
<path d="M41.7857 0H36.2143C16.2137 0 0 17.4609 0 39C0 60.5391 16.2137 78 36.2143 78H41.7857C61.7863 78 78 60.5391 78 39C78 17.4609 61.7863 0 41.7857 0Z" fill="white"/>
<path d="M38.5 71C56.4493 71 71 56.6731 71 39C71 21.3269 56.4493 7 38.5 7C20.5507 7 6 21.3269 6 39C6 56.6731 20.5507 71 38.5 71Z" fill="#E0E8E2"/>
<path d="M31.6925 50.7508C33.8344 51.9423 36.969 52.9392 38.4056 52.9392C42.8463 52.9392 49.3504 47.1277 49.8467 40.5866C49.8728 40.3921 49.7945 40.1976 49.6377 40.0517C45.6673 35.8693 44.7531 30.5927 44.5703 29.3283C44.6225 29.1338 44.5442 29.0365 44.5442 29.0365C44.4919 28.9879 44.3351 29.1095 44.2828 29.1824C43.7343 29.8633 43.1596 30.3739 42.7156 30.6657C42.5066 30.7873 42.2193 30.7143 42.1409 30.4712C41.5401 28.8663 39.3983 27.7477 38.7191 27.4073C38.5885 27.3344 38.4318 27.3344 38.275 27.383C36.8122 27.8207 28.7669 30.69 27.722 39.1763C27.4869 40.9514 27.5392 42.4833 27.7481 43.7721C28.4273 48.1246 32.1626 48.6596 33.6254 48.7082C33.8344 48.7082 33.9389 48.9514 33.7822 49.0973C29.0853 51.8936 21.5312 46.4225 21.5312 46.4225" fill="#FDF8E5"/>
<path d="M31.6925 50.7508C33.8344 51.9423 36.969 52.9392 38.4056 52.9392C42.8463 52.9392 49.3504 47.1277 49.8467 40.5866C49.8728 40.3921 49.7945 40.1976 49.6377 40.0517C45.6673 35.8693 44.7531 30.5927 44.5703 29.3283C44.6225 29.1338 44.5442 29.0365 44.5442 29.0365C44.4919 28.9879 44.3351 29.1095 44.2828 29.1824C43.7343 29.8633 43.1596 30.3739 42.7156 30.6657C42.5066 30.7873 42.2193 30.7143 42.1409 30.4712C41.5401 28.8663 39.3983 27.7477 38.7191 27.4073C38.5885 27.3344 38.4318 27.3344 38.275 27.383C36.8122 27.8207 28.7669 30.69 27.722 39.1763C27.4869 40.9514 27.5392 42.4833 27.7481 43.7721C28.4273 48.1246 32.1626 48.6596 33.6254 48.7082C33.8344 48.7082 33.9389 48.9514 33.7822 49.0973C29.0853 51.8936 21.5312 46.4225 21.5312 46.4225" stroke="#3A643C" stroke-miterlimit="10" stroke-linecap="round" stroke-linejoin="round"/>
<path d="M45.4854 35.9179C51.0973 35.9179 55.6466 31.683 55.6466 26.4589C55.6466 21.2349 51.0973 17 45.4854 17C39.8735 17 35.3242 21.2349 35.3242 26.4589C35.3242 31.683 39.8735 35.9179 45.4854 35.9179Z" stroke="#3A643C" stroke-miterlimit="10" stroke-linecap="round" stroke-linejoin="round"/>
<path d="M54.757 30.0864L53.4883 32.128L63.731 37.6433L64.9996 35.6017L54.757 30.0864Z" fill="#3A643C"/>
<path d="M25.0943 48.9149C19.7736 54.8724 18.1873 48.9026 18.0044 45.0121C17.8216 41.1215 23.3854 34.7507 24.587 32.3434C25.7886 29.9604 24.0646 24.9513 30.9083 21.7659C36.6289 19.0912 40.2598 21.7902 41.2785 22.7385C41.4352 22.8844 41.6965 22.8844 41.8532 22.7385C44.7788 19.8206 50.4993 23.1276 50.9173 28.8662C51.3614 34.7993 53.5033 36.4285 54.3914 37.62C56.0632 39.8814 60.1904 47.6382 56.246 50.1428C52.2756 52.6716 50.6822 49.5349 50.6822 49.5349C50.6822 49.5349 48.3574 51.9421 45.5624 50.9695C45.1184 50.8236 44.7527 50.5561 44.4653 50.2887" stroke="#3A643C" stroke-miterlimit="10" stroke-linecap="round" stroke-linejoin="round"/>
<path d="M33.3125 51.5532V57" stroke="#3A643C" stroke-miterlimit="10" stroke-linecap="round" stroke-linejoin="round"/>
<path d="M43.2656 51.1636V56.9995" stroke="#3A643C" stroke-miterlimit="10" stroke-linecap="round" stroke-linejoin="round"/>
</g>
</svg>
