<svg width="100" height="96" viewBox="0 0 100 96" fill="none" xmlns="http://www.w3.org/2000/svg">
<rect x="0.5" y="0.5" width="99" height="95" rx="8.5" fill="#FFFCF2"/>
<rect x="0.5" y="0.5" width="99" height="95" rx="8.5" stroke="#EAEAEA"/>
<path d="M52.7857 9H47.2143C27.2137 9 11 26.4609 11 48C11 69.5391 27.2137 87 47.2143 87H52.7857C72.7863 87 89 69.5391 89 48C89 26.4609 72.7863 9 52.7857 9Z" fill="white"/>
<path d="M49.5 80C67.4493 80 82 65.6731 82 48C82 30.3269 67.4493 16 49.5 16C31.5507 16 17 30.3269 17 48C17 65.6731 31.5507 80 49.5 80Z" fill="#E0E8E2"/>
<path d="M62.6419 41.262C62.1108 51.3916 56.1662 39.4546 48.8331 39.4546C46.993 40.1937 36.1241 51.9205 35.3086 41.26C35.3086 34.7823 41.5 29 48.8331 29C56.1662 29 62.6419 34.7843 62.6419 41.262Z" fill="#FDF8E5"/>
<path d="M60.4383 67.3276C58.135 66.8986 56.4608 65.7559 55.4534 63.9366C54.0014 61.3089 54.4413 58.2273 54.6352 57.7777C56.3662 56.6226 57.6526 55.1128 58.608 53.079C60.0126 53.0501 61.4031 52.1055 62.3443 50.542C63.1294 49.2343 63.5456 47.4316 62.699 46.3631C62.5287 46.1445 62.2686 45.9176 61.8808 45.7567C62.9024 44.0654 63.1105 42.6463 63.1105 40.8229C63.1105 34.3051 56.9432 29 49.3665 29C46.2782 29 43.4216 29.8828 41.123 31.3679C41.1136 31.372 41.1041 31.3761 41.0947 31.3803C41.0663 31.3968 41.0426 31.4174 41.019 31.438C37.7367 33.5996 35.6179 37.003 35.6179 40.8229C35.6179 42.8154 35.6652 43.9045 36.682 45.5175C36.2044 45.6783 35.8969 45.9382 35.703 46.1857C34.8565 47.2583 35.2679 49.0569 36.0577 50.3646C37.0131 51.9569 38.4367 52.9058 39.865 52.9058C39.9312 52.9058 39.9927 52.8893 40.0447 52.8645C41.071 55.0179 42.4331 56.6721 44.0979 57.7777C44.2871 58.2232 44.7316 61.3047 43.2797 63.9366C42.2723 65.7559 40.5933 66.8986 38.2948 67.3317C38.0867 67.3688 37.9543 67.5503 37.9968 67.7319C38.0347 67.8886 38.1955 68 38.3752 68C38.4036 68 38.4272 67.9959 38.4556 67.9917C42.6223 67.2121 44.1783 64.4523 44.7506 62.2742C45.1147 60.8963 45.1478 59.3618 45.0107 58.3593C46.3066 59.073 47.82 59.4566 49.3665 59.4566C50.9131 59.4566 52.4313 59.0689 53.7224 58.3593C53.5805 59.3659 53.6184 60.8963 53.9825 62.2742C54.5548 64.4523 56.1108 67.2121 60.2775 67.9917C60.3059 67.9959 60.3342 68 60.3579 68C60.5376 68 60.6984 67.8927 60.7362 67.7319C60.7788 67.5421 60.6464 67.3647 60.4383 67.3276ZM62.3348 40.8188C62.3348 42.8649 62.0132 44.1314 61.1146 45.5628C60.9538 45.5463 60.7835 45.5381 60.5944 45.5422C61.4457 36.3305 54.6683 34.0905 54.5974 34.0699C54.394 34.008 54.1764 34.0988 54.1008 34.2721C54.0298 34.4453 54.1339 34.6392 54.3325 34.7052C54.3893 34.7217 59.0194 36.2604 59.7809 42.2626C57.0898 36.4626 48.8132 36.5121 48.7139 36.5203C48.501 36.5244 48.3308 36.6771 48.3355 36.8627C48.3402 37.0483 48.5105 37.1927 48.7233 37.1927C48.7281 37.1927 48.7281 37.1927 48.7281 37.1927C49.1206 37.1845 57.8181 37.1391 59.5397 43.8797C58.6978 42.9598 57.4682 42.1389 55.827 41.3963C54.8906 40.9714 53.9021 40.6167 52.9468 40.2743C51.9347 39.9113 50.8894 39.5359 49.9152 39.0821C46.2451 37.3577 43.8992 34.5361 41.8325 31.7515C43.956 30.4438 46.5572 29.6724 49.3618 29.6724C56.5175 29.6724 62.3348 34.6722 62.3348 40.8188ZM36.3935 40.8188C36.3935 37.3247 38.2759 34.2019 41.2129 32.1558C43.1709 34.796 45.3938 37.4691 48.7659 39.2677C48.0139 40.1216 44.5708 43.7147 38.9238 45.1874C39.2218 42.5638 41.998 39.9608 42.0264 39.936C42.173 39.7999 42.1635 39.5854 42.0122 39.4575C41.8561 39.3296 41.6102 39.3378 41.4683 39.4699C41.3359 39.5936 38.3043 42.4276 38.134 45.3772C38.1293 45.3772 38.1245 45.3772 38.1198 45.3813C37.8881 45.3607 37.6752 45.3566 37.4813 45.3648C36.4408 43.7972 36.3935 42.8195 36.3935 40.8188ZM44.6276 57.2785C42.8635 56.1193 41.4541 54.3042 40.4467 51.9033L39.794 49.9768C39.7326 49.7994 39.5197 49.6963 39.3116 49.7499C39.1083 49.8036 38.99 49.9892 39.0515 50.1707L39.7136 52.1178C39.7278 52.155 39.7468 52.188 39.7609 52.2251C38.4698 52.1673 37.3631 51.0741 36.7483 50.0511C35.9442 48.7145 35.7787 47.2831 36.3462 46.5694C36.682 46.1445 37.2732 45.9754 38.1056 46.0661C38.1151 46.0661 38.1293 46.0661 38.1387 46.0661C38.1435 46.0661 38.1482 46.0661 38.1529 46.0661C38.1576 46.0661 38.1624 46.0661 38.1671 46.0661C38.1907 46.0661 38.2144 46.062 38.238 46.0579C38.2428 46.0579 38.2428 46.0579 38.2475 46.0579H38.2522C38.257 46.0579 38.2617 46.0579 38.2664 46.0537C38.3563 46.0331 38.4461 46.0125 38.5313 45.9919C38.5833 45.9877 38.6353 45.9754 38.6826 45.9589C45.0532 44.4614 48.747 40.4352 49.4422 39.6184C49.4848 39.639 49.5273 39.6637 49.5699 39.6844C50.5773 40.1546 51.6414 40.5383 52.6677 40.9054C53.6042 41.2437 54.5784 41.5902 55.4865 42.0027C57.8134 43.0506 59.237 44.251 59.8471 45.666C59.8471 45.6701 59.8518 45.6701 59.8518 45.6742C59.8566 45.6825 59.8613 45.6948 59.866 45.7031C59.8708 45.7113 59.8755 45.7196 59.8849 45.7278C59.8897 45.7361 59.8991 45.7443 59.9039 45.7526C59.9039 45.7526 59.9039 45.7567 59.9086 45.7567C59.8755 45.8145 59.8566 45.8846 59.866 45.9547C59.8897 46.1404 60.0836 46.2724 60.2964 46.2476C61.1288 46.161 61.72 46.3301 62.0558 46.7509C62.6233 47.4646 62.4578 48.9001 61.6538 50.2326C61.0815 51.1855 60.0836 52.1921 58.9059 52.3777C59.0147 52.1096 59.1235 51.8332 59.2228 51.5485L59.6768 49.882C59.7241 49.7004 59.5964 49.5189 59.3883 49.4777C59.1802 49.4364 58.9721 49.5478 58.9248 49.7293L58.4755 51.3753C57.5249 54.0649 56.1392 55.9419 54.0913 57.2909C54.0866 57.2909 54.0866 57.295 54.0818 57.295C52.7576 58.2521 51.0833 58.7801 49.3618 58.7801C47.645 58.776 45.966 58.2479 44.6276 57.2785Z" fill="#3A643C"/>
<path d="M46.1402 46.9282C44.2957 48.1658 42.0492 46.9612 41.9499 46.9117C41.7702 46.8127 41.529 46.8581 41.4155 47.0148C41.302 47.1716 41.354 47.382 41.5337 47.481C41.6094 47.5222 42.7918 48.1617 44.239 48.1617C44.9957 48.1617 45.8234 47.9884 46.6037 47.4645C46.774 47.3531 46.8071 47.1386 46.6747 46.9901C46.5517 46.8457 46.3105 46.8168 46.1402 46.9282Z" fill="#3A643C"/>
<path d="M57.1888 47.4809C57.3686 47.3819 57.4206 47.1756 57.3071 47.0148C57.1936 46.858 56.9571 46.8085 56.7727 46.9075C56.6781 46.9611 54.4316 48.1616 52.5823 46.924C52.4121 46.8085 52.1709 46.8374 52.0384 46.9859C51.906 47.1344 51.9391 47.3448 52.1094 47.4603C52.8897 47.9842 53.7174 48.1574 54.4741 48.1574C55.9308 48.1616 57.1179 47.5222 57.1888 47.4809Z" fill="#3A643C"/>
<path d="M33.966 46.3136C32.1877 46.1693 32.0458 43.6034 32.0458 43.5786C32.0363 43.3971 31.8661 43.2568 31.658 43.2568C31.4499 43.2568 31.2796 43.4012 31.2702 43.5786C31.2702 43.6034 31.1283 46.1693 29.35 46.3136C29.1513 46.3301 29 46.4745 29 46.6478C29 46.821 29.1513 46.9654 29.35 46.9819C30.8256 47.1016 31.2371 49.5726 31.2702 50.5131C31.2749 50.6946 31.4499 50.839 31.658 50.839C31.8661 50.839 32.0363 50.6946 32.0458 50.5131C32.0789 49.5726 32.4904 47.1016 33.966 46.9819C34.1646 46.9654 34.316 46.821 34.316 46.6478C34.316 46.4745 34.1646 46.3301 33.966 46.3136ZM31.658 48.4381C31.4262 47.7616 31.0526 47.0809 30.4614 46.6767C31.0526 46.3425 31.4262 45.7939 31.658 45.2493C31.8897 45.7939 32.2634 46.3425 32.8545 46.6767C32.2634 47.0809 31.8897 47.7616 31.658 48.4381Z" fill="#3A643C"/>
<path d="M69.6496 35.7492C67.8713 35.6048 67.7294 33.0389 67.7294 33.0142C67.7199 32.8326 67.5497 32.6924 67.3416 32.6924C67.1335 32.6924 66.9632 32.8368 66.9537 33.0142C66.9537 33.0389 66.8119 35.6048 65.0336 35.7492C64.8349 35.7657 64.6836 35.9101 64.6836 36.0833C64.6836 36.2566 64.8349 36.401 65.0336 36.4175C66.5092 36.5371 66.9206 39.0081 66.9537 39.9487C66.9585 40.1302 67.1335 40.2746 67.3416 40.2746C67.5497 40.2746 67.7199 40.1302 67.7294 39.9487C67.7625 39.0081 68.1739 36.5371 69.6496 36.4175C69.8482 36.401 69.9995 36.2566 69.9995 36.0833C69.9995 35.9101 69.8482 35.7657 69.6496 35.7492ZM67.3463 37.8737C67.1145 37.1971 66.7409 36.5165 66.1497 36.1122C66.7409 35.7781 67.1145 35.2294 67.3463 34.6849C67.578 35.2294 67.9517 35.7781 68.5429 36.1122C67.9469 36.5165 67.578 37.1971 67.3463 37.8737Z" fill="#3A643C"/>
<path d="M36.7485 53.2478C35.9445 53.1818 35.8783 51.9896 35.8783 51.9772C35.8736 51.8576 35.7601 51.7627 35.6229 51.7627C35.4858 51.7627 35.3723 51.8576 35.3675 51.9772C35.3675 51.9896 35.2919 53.1818 34.4973 53.2478C34.3649 53.2602 34.2656 53.355 34.2656 53.4705C34.2656 53.5861 34.3649 53.6851 34.4973 53.6933C35.1594 53.7469 35.3486 54.935 35.3675 55.3475C35.3723 55.4672 35.4858 55.5662 35.6229 55.5662C35.7601 55.5662 35.8783 55.4713 35.8783 55.3475C35.8925 54.935 36.0864 53.7469 36.7485 53.6933C36.881 53.6809 36.9803 53.5861 36.9803 53.4705C36.9803 53.355 36.881 53.2602 36.7485 53.2478ZM35.6229 54.1347C35.5189 53.8872 35.3675 53.6562 35.1594 53.4912C35.3675 53.3509 35.5189 53.157 35.6229 52.9549C35.727 53.157 35.8783 53.3509 36.0864 53.4912C35.8783 53.6562 35.727 53.8872 35.6229 54.1347Z" fill="#3A643C"/>
</svg>
