<svg width="23" height="19" viewBox="0 0 23 19" fill="none" xmlns="http://www.w3.org/2000/svg">
<path d="M22.5 0.510056C21.5424 1.18553 20.4821 1.70217 19.36 2.04006C18.7577 1.34757 17.9573 0.856748 17.067 0.633982C16.1767 0.411216 15.2395 0.467251 14.3821 0.794509C13.5247 1.12177 12.7884 1.70446 12.273 2.46377C11.7575 3.22309 11.4877 4.12239 11.5 5.04006V6.04006C9.74263 6.08562 8.00127 5.69587 6.43101 4.9055C4.86074 4.11513 3.51032 2.94869 2.5 1.51006C2.5 1.51006 -1.5 10.5101 7.5 14.5101C5.44053 15.908 2.98716 16.609 0.5 16.5101C9.5 21.5101 20.5 16.5101 20.5 5.01006C20.4991 4.73151 20.4723 4.45365 20.42 4.18006C21.4406 3.17355 22.1608 1.90277 22.5 0.510056Z" stroke="#3A643B" stroke-linecap="round" stroke-linejoin="round"/>
</svg>
