<svg width="21" height="21" viewBox="0 0 21 21" fill="none" xmlns="http://www.w3.org/2000/svg">
<path d="M15.5 0.5H5.5C2.73858 0.5 0.5 2.73858 0.5 5.5V15.5C0.5 18.2614 2.73858 20.5 5.5 20.5H15.5C18.2614 20.5 20.5 18.2614 20.5 15.5V5.5C20.5 2.73858 18.2614 0.5 15.5 0.5Z" stroke="#3A643B" stroke-linecap="round" stroke-linejoin="round"/>
<path d="M14.4997 9.8703C14.6231 10.7025 14.481 11.5525 14.0935 12.2993C13.706 13.0461 13.0929 13.6517 12.3413 14.03C11.5898 14.4082 10.7382 14.5399 9.90749 14.4062C9.07683 14.2726 8.30947 13.8804 7.71455 13.2855C7.11962 12.6905 6.72744 11.9232 6.59377 11.0925C6.46011 10.2619 6.59177 9.4102 6.97003 8.65868C7.34829 7.90716 7.95389 7.29404 8.70069 6.90654C9.44749 6.51904 10.2975 6.37689 11.1297 6.5003C11.9786 6.62619 12.7646 7.02176 13.3714 7.62861C13.9782 8.23545 14.3738 9.02138 14.4997 9.8703Z" stroke="#3A643B" stroke-linecap="round" stroke-linejoin="round"/>
<path d="M16 5H16.01" stroke="#3A643B" stroke-width="2" stroke-linecap="round" stroke-linejoin="round"/>
</svg>
