<svg width="92" height="96" viewBox="0 0 92 96" fill="none" xmlns="http://www.w3.org/2000/svg">
<rect x="0.5" y="0.5" width="91" height="95" rx="8.5" fill="#FFFCF2"/>
<rect x="0.5" y="0.5" width="91" height="95" rx="8.5" stroke="#EAEAEA"/>
<path d="M48.7857 9H43.2143C23.2137 9 7 26.4609 7 48C7 69.5391 23.2137 87 43.2143 87H48.7857C68.7863 87 85 69.5391 85 48C85 26.4609 68.7863 9 48.7857 9Z" fill="white"/>
<path d="M46.5 80C64.4493 80 79 65.6731 79 48C79 30.3269 64.4493 16 46.5 16C28.5507 16 14 30.3269 14 48C14 65.6731 28.5507 80 46.5 80Z" fill="#E0E8E2"/>
<path d="M62.8156 39.095C62.8143 38.7247 62.6032 38.3666 62.273 38.1746L54.8719 33.9877C54.5695 33.8166 54.2009 33.8168 53.8914 33.9747C48.9365 36.5012 42.8617 36.5002 37.9077 33.9715C37.6017 33.8153 37.2376 33.8131 36.9367 33.9791L29.5115 38.0745C29.1813 38.2665 28.9702 38.6247 28.9689 38.995C28.9287 50.1033 36.1184 61.5201 45.8924 66.1482C46.2857 66.3659 46.1458 66.3659 46.5391 66.1482C56.4972 60.6304 62.8187 50.1682 62.8156 39.095Z" fill="#FDF8E5" stroke="#3A643C" stroke-miterlimit="10"/>
<path opacity="0.5" d="M43.4098 42.4192C43.2772 42.7276 43.2772 43.1185 43.2772 43.9004V45.4979C43.2772 45.5358 43.2772 45.5548 43.265 45.5666C43.2527 45.5784 43.233 45.5784 43.1936 45.5784H41.5351C40.7234 45.5784 40.3175 45.5784 39.9974 45.7061C39.5705 45.8765 39.2314 46.2031 39.0546 46.6143C38.9219 46.9227 38.9219 47.3136 38.9219 48.0955C38.9219 48.8773 38.9219 49.2683 39.0546 49.5767C39.2314 49.9878 39.5705 50.3145 39.9974 50.4848C40.3175 50.6125 40.7234 50.6125 41.5351 50.6125H43.1936C43.233 50.6125 43.2527 50.6125 43.265 50.6243C43.2772 50.6361 43.2772 50.6551 43.2772 50.6931V52.2906C43.2772 53.0724 43.2772 53.4634 43.4098 53.7718C43.5867 54.1829 43.9258 54.5096 44.3527 54.6799C44.6728 54.8076 45.0787 54.8076 45.8904 54.8076C46.7021 54.8076 47.108 54.8076 47.4281 54.6799C47.855 54.5096 48.1942 54.1829 48.371 53.7718C48.5036 53.4634 48.5036 53.0724 48.5036 52.2906V50.6931C48.5036 50.6551 48.5036 50.6361 48.5158 50.6243C48.5281 50.6125 48.5478 50.6125 48.5872 50.6125H50.2457C51.0574 50.6125 51.4633 50.6125 51.7834 50.4848C52.2103 50.3145 52.5495 49.9878 52.7263 49.5767C52.8589 49.2683 52.8589 48.8773 52.8589 48.0955C52.8589 47.3136 52.8589 46.9227 52.7263 46.6143C52.5495 46.2031 52.2103 45.8765 51.7834 45.7061C51.4633 45.5784 51.0574 45.5784 50.2457 45.5784H48.5872C48.5478 45.5784 48.5281 45.5784 48.5158 45.5666C48.5036 45.5548 48.5036 45.5358 48.5036 45.4979V43.9004C48.5036 43.1185 48.5036 42.7276 48.371 42.4192C48.1942 42.008 47.855 41.6813 47.4281 41.511C47.108 41.3833 46.7021 41.3833 45.8904 41.3833C45.0787 41.3833 44.6728 41.3833 44.3527 41.511C43.9258 41.6813 43.5867 42.008 43.4098 42.4192Z" fill="#E0E8E2" stroke="#3A643C"/>
<path opacity="0.5" d="M38.25 63.7708C39.9759 63.7708 41.375 62.6049 41.375 61.1667C41.375 59.7284 39.9759 58.5625 38.25 58.5625C36.5241 58.5625 35.125 59.7284 35.125 61.1667C35.125 62.6049 36.5241 63.7708 38.25 63.7708Z" stroke="#3A643C"/>
<path d="M38.25 58.25V58.4583" stroke="#3A643C" stroke-linecap="round"/>
<path d="M38.25 63.458V64.2913" stroke="#3A643C" stroke-linecap="round"/>
<path d="M35.6172 59.6112C35.8293 59.788 36.1733 59.788 36.3854 59.6112C36.5975 59.4345 36.5975 59.1478 36.3854 58.971L35.6172 59.6112ZM35.3672 59.4029L35.6172 59.6112L36.3854 58.971L36.1354 58.7627L35.3672 59.4029Z" fill="#3A643C"/>
<path d="M39.7411 59.2835C39.529 59.4603 39.529 59.747 39.7411 59.9237C39.9532 60.1005 40.2972 60.1005 40.5093 59.9237L39.7411 59.2835ZM40.3661 58.7627L39.7411 59.2835L40.5093 59.9237L41.1343 59.4029L40.3661 58.7627Z" fill="#3A643C"/>
<path d="M40.8843 62.7215C40.6722 62.5447 40.3282 62.5447 40.1161 62.7215C39.904 62.8983 39.904 63.1849 40.1161 63.3617L40.8843 62.7215ZM41.1343 62.9298L40.8843 62.7215L40.1161 63.3617L40.3661 63.57L41.1343 62.9298Z" fill="#3A643C"/>
<path d="M34.5 61.1665H35" stroke="#3A643C" stroke-linecap="round"/>
<path d="M41 61.1665H42" stroke="#3A643C" stroke-linecap="round"/>
<path d="M36.7604 63.0492C36.9725 62.8724 36.9725 62.5858 36.7604 62.409C36.5483 62.2322 36.2043 62.2322 35.9922 62.409L36.7604 63.0492ZM36.1354 63.57L36.7604 63.0492L35.9922 62.409L35.3672 62.9298L36.1354 63.57Z" fill="#3A643C"/>
<path d="M38.5 59.9167C38.5 60.1468 38.2761 60.3333 38 60.3333C37.7239 60.3333 37.5 60.1468 37.5 59.9167C37.5 59.6865 37.7239 59.5 38 59.5C38.2761 59.5 38.5 59.6865 38.5 59.9167Z" stroke="#3A643C"/>
<path d="M37.5 61.5832C37.5 61.8133 37.2761 61.9998 37 61.9998C36.7239 61.9998 36.5 61.8133 36.5 61.5832C36.5 61.3531 36.7239 61.1665 37 61.1665C37.2761 61.1665 37.5 61.3531 37.5 61.5832Z" stroke="#3A643C"/>
<path d="M40.25 61.9997C40.25 62.2298 40.0261 62.4163 39.75 62.4163C39.4739 62.4163 39.25 62.2298 39.25 61.9997C39.25 61.7696 39.4739 61.583 39.75 61.583C40.0261 61.583 40.25 61.7696 40.25 61.9997Z" stroke="#3A643C"/>
<path d="M38.25 57.2082C38.5261 57.2082 38.75 57.3947 38.75 57.6248C38.75 57.855 38.5261 58.0415 38.25 58.0415C37.9739 58.0415 37.75 57.855 37.75 57.6248C37.75 57.3947 37.9739 57.2082 38.25 57.2082Z" stroke="#3A643C"/>
<path d="M38.75 64.7081C38.75 64.478 38.5261 64.2915 38.25 64.2915C37.9739 64.2915 37.75 64.478 37.75 64.7081C37.75 64.9383 37.9739 65.1248 38.25 65.1248C38.5261 65.1248 38.75 64.9383 38.75 64.7081Z" stroke="#3A643C"/>
<path d="M35.25 58.2497C35.5261 58.2497 35.75 58.4362 35.75 58.6663C35.75 58.8965 35.5261 59.083 35.25 59.083C34.9739 59.083 34.75 58.8965 34.75 58.6663C34.75 58.4362 34.9739 58.2497 35.25 58.2497Z" stroke="#3A643C"/>
<path d="M41.25 58.2497C41.5261 58.2497 41.75 58.4362 41.75 58.6663C41.75 58.8965 41.5261 59.083 41.25 59.083C40.9739 59.083 40.75 58.8965 40.75 58.6663C40.75 58.4362 40.9739 58.2497 41.25 58.2497Z" stroke="#3A643C"/>
<path d="M41.25 63.2497C41.5261 63.2497 41.75 63.4362 41.75 63.6663C41.75 63.8965 41.5261 64.083 41.25 64.083C40.9739 64.083 40.75 63.8965 40.75 63.6663C40.75 63.4362 40.9739 63.2497 41.25 63.2497Z" stroke="#3A643C"/>
<path d="M34.5 61.1661C34.5 60.936 34.2761 60.7495 34 60.7495C33.7239 60.7495 33.5 60.936 33.5 61.1661C33.5 61.3963 33.7239 61.5828 34 61.5828C34.2761 61.5828 34.5 61.3963 34.5 61.1661Z" stroke="#3A643C"/>
<path d="M43 61.1661C43 60.936 42.7761 60.7495 42.5 60.7495C42.2239 60.7495 42 60.936 42 61.1661C42 61.3963 42.2239 61.5828 42.5 61.5828C42.7761 61.5828 43 61.3963 43 61.1661Z" stroke="#3A643C"/>
<path d="M35.25 63.2497C35.5261 63.2497 35.75 63.4362 35.75 63.6663C35.75 63.8965 35.5261 64.083 35.25 64.083C34.9739 64.083 34.75 63.8965 34.75 63.6663C34.75 63.4362 34.9739 63.2497 35.25 63.2497Z" stroke="#3A643C"/>
</svg>
