<svg width="20" height="20" viewBox="0 0 20 20" fill="none" xmlns="http://www.w3.org/2000/svg">
  <path d="M0.000488281 9.98091C0.0111523 4.45792 4.49679 -0.0104273 10.0198 0.000231817C15.5428 0.0108909 20.0109 4.49652 20.0002 10.0195C19.9895 15.5425 15.5039 20.0109 9.98091 20.0002C4.45792 19.9895 -0.0104273 15.5039 0.000488281 9.98091ZM1.50049 9.98381C1.49613 12.2381 2.38749 14.4019 3.97847 15.999C5.56945 17.5961 7.73073 18.4958 9.98507 18.5002C12.2394 18.5045 14.4031 17.6132 16.0012 16.0222C17.5993 14.4312 18.4989 12.271 18.5033 10.0166C18.5076 7.76228 17.6163 5.59855 16.0254 4.00142C14.4344 2.40428 12.2741 1.50458 10.0198 1.50023C7.76549 1.49588 5.60276 2.38724 4.00563 3.97822C2.4085 5.5692 1.5088 7.72947 1.50444 9.98381C1.50008 12.2381 2.39144 14.4019 3.98242 15.999C5.5734 17.5961 7.73468 18.4958 9.98902 18.5002C12.2434 18.5045 14.4071 17.6132 16.0052 16.0222C17.6033 14.4312 18.5029 12.271 18.5073 10.0166C18.5116 7.76228 17.6203 5.59855 16.0293 4.00142C14.4383 2.40428 12.2781 1.50458 10.0238 1.50023C7.76949 1.49588 5.60676 2.38724 4.00963 3.97822C2.4125 5.5692 1.5128 7.72947 1.50844 9.98381C1.50408 12.2381 2.39544 14.4019 3.98642 15.999C5.5774 17.5961 7.73868 18.4958 9.99302 18.5002C12.2473 18.5045 14.4111 17.6132 16.0092 16.0222C17.6073 14.4312 18.5069 12.271 18.5113 10.0166C18.5156 7.76228 17.6243 5.59855 16.0333 4.00142C14.4423 2.40428 12.2821 1.50458 10.0278 1.50023C7.77349 1.49588 5.61076 2.38724 4.01363 3.97822C2.4165 5.5692 1.5168 7.72947 1.51244 9.98381" fill="#808080"/>
</svg>
